HIERARCHY
ROOT Pelvis
{
	OFFSET 0.000000 0.000000 0.000000
	CHANNELS 6 Xposition Yposition Zposition Xrotation Yrotation Zrotation
	JOINT LeftUpLeg_virtual
	{
		OFFSET 0.000000 0.000000 0.000000
		CHANNELS 3 Xrotation Yrotation Zrotation
		JOINT LeftUpLeg
		{
			OFFSET 18.735201 -5.666702 -4.541200
			CHANNELS 3 Xrotation Yrotation Zrotation
			JOINT LeftLeg
			{
				OFFSET -0.021200 -31.938179 0.493100
				CHANNELS 3 Xrotation Yrotation Zrotation
				JOINT LeftFoot
				{
					OFFSET 0.021200 -31.938179 -4.336299
					CHANNELS 3 Xrotation Yrotation Zrotation
					JOINT LeftToeBase
					{
						OFFSET 0.943001 -26.722000 15.023500
						CHANNELS 3 Xrotation Yrotation Zrotation
						End Site
						{
							OFFSET 0 0 0
						}
					}
				}
			}
		}
	}
	JOINT RightUpLeg_virtual
	{
		OFFSET 0.000000 0.000000 0.000000
		CHANNELS 3 Xrotation Yrotation Zrotation
		JOINT RightUpLeg
		{
			OFFSET -18.735201 -5.666702 -4.541200
			CHANNELS 3 Xrotation Yrotation Zrotation
			JOINT RightLeg
			{
				OFFSET 0.018946 -31.938133 0.493100
				CHANNELS 3 Xrotation Yrotation Zrotation
				JOINT RightFoot
				{
					OFFSET -0.018946 -31.938126 -4.336299
					CHANNELS 3 Xrotation Yrotation Zrotation
					JOINT RightToeBase
					{
						OFFSET -0.943001 -26.722004 15.023500
						CHANNELS 3 Xrotation Yrotation Zrotation
						End Site
						{
							OFFSET 0 0 0
						}
					}
				}
			}
		}
	}
	JOINT Hips_virtual
	{
		OFFSET 0.000000 0.000000 0.000000
		CHANNELS 3 Xrotation Yrotation Zrotation
		JOINT Hips
		{
			OFFSET -0.000000 -0.000000 -0.000000
			CHANNELS 3 Xrotation Yrotation Zrotation
			JOINT Spine
			{
				OFFSET 0.000000 10.199997 -0.299500
				CHANNELS 3 Xrotation Yrotation Zrotation
				JOINT Spine1
				{
					OFFSET 0.000000 11.900002 -1.516600
					CHANNELS 3 Xrotation Yrotation Zrotation
					JOINT Spine2
					{
						OFFSET 0.000000 13.600006 -2.842500
						CHANNELS 3 Xrotation Yrotation Zrotation
						JOINT Neck_virtual
						{
							OFFSET 0.000000 0.000000 0.000000
							CHANNELS 3 Xrotation Yrotation Zrotation
							JOINT Neck
							{
								OFFSET 0.000000 9.624100 -2.890100
								CHANNELS 3 Xrotation Yrotation Zrotation
								JOINT Head
								{
									OFFSET 0.000000 14.068802 -1.351900
									CHANNELS 3 Xrotation Yrotation Zrotation
									End Site
									{
										OFFSET 0 0 0
									}
								}
							}
						}
						JOINT LeftShoulder_virtual
						{
							OFFSET 0.000000 0.000000 0.000000
							CHANNELS 3 Xrotation Yrotation Zrotation
							JOINT LeftShoulder
							{
								OFFSET 15.263000 10.923401 -0.547700
								CHANNELS 3 Xrotation Yrotation Zrotation
								JOINT LeftArm
								{
									OFFSET 25.438599 -2.830597 -13.032500
									CHANNELS 3 Xrotation Yrotation Zrotation
									JOINT LeftForeArm
									{
										OFFSET 29.960503 0.000000 0.000000
										CHANNELS 3 Xrotation Yrotation Zrotation
										JOINT LeftHand
										{
											OFFSET 27.849251 0.000000 0.000000
											CHANNELS 3 Xrotation Yrotation Zrotation
											End Site
											{
												OFFSET 0 0 0
											}
										}
									}
								}
							}
						}
						JOINT RightShoulder_virtual
						{
							OFFSET 0.000000 0.000000 0.000000
							CHANNELS 3 Xrotation Yrotation Zrotation
							JOINT RightShoulder
							{
								OFFSET -15.263000 10.923401 -0.547700
								CHANNELS 3 Xrotation Yrotation Zrotation
								JOINT RightArm
								{
									OFFSET -25.438599 -2.830597 -13.032500
									CHANNELS 3 Xrotation Yrotation Zrotation
									JOINT RightForeArm
									{
										OFFSET -29.960503 0.000000 0.000000
										CHANNELS 3 Xrotation Yrotation Zrotation
										JOINT RightHand
										{
											OFFSET -27.849251 0.000000 0.000000
											CHANNELS 3 Xrotation Yrotation Zrotation
											End Site
											{
												OFFSET 0 0 0
											}
										}
									}
								}
							}
						}
					}
				}
			}
		}
	}
}
MOTION
Frames: 10
Frame Time: 0.03333333
-1.612604 86.462807 0.352119 0.000000 0.000000 0.000000 6.044615 -82.382224 8.244636 -27.038190 26.545877 35.064815 32.209482 -10.667810 1.042012 -7.663662 5.699986 -22.153561 0.000000 0.000000 0.000000 6.044615 -82.382224 8.244636 -30.711717 -3.844968 -30.477001 29.068814 4.755772 -5.149879 -2.555979 7.386161 27.712082 0.000000 0.000000 0.000000 6.044615 -82.382224 8.244636 0.000000 0.000000 0.000000 7.186465 -5.527939 -4.679429 3.180253 -8.412487 -0.457311 0.000000 0.000000 0.000000 3.240264 -8.382679 -0.141392 -2.313288 1.563849 1.283538 0.000000 0.000000 0.000000 3.240264 -8.382679 -0.141392 4.998840 3.199387 13.148479 -41.287155 14.474967 -0.764743 0.404866 -12.304739 -0.189207 0.000000 0.000000 0.000000 3.240264 -8.382679 -0.141392 -0.697213 3.176103 -19.419908 -43.720382 41.405959 39.746209 179.763708 44.834844 -178.942309 0.000000 0.000000 0.000000 
-1.651326 86.462585 0.357620 0.000000 0.000000 0.000000 5.940855 -82.303663 8.160706 -26.996555 26.522063 35.017260 32.163026 -10.696849 1.038494 -7.649108 5.698338 -22.154366 0.000000 0.000000 0.000000 5.940855 -82.303663 8.160706 -30.624082 -3.801008 -30.499930 29.142037 4.658362 -5.169907 -2.659630 7.341886 27.762825 0.000000 0.000000 0.000000 5.940855 -82.303663 8.160706 0.000000 -0.000001 0.000000 7.171428 -5.563133 -4.714980 3.193037 -8.441199 -0.434101 0.000000 0.000000 0.000000 3.256760 -8.414371 -0.119542 -2.310005 1.565275 1.286952 0.000000 0.000000 0.000000 3.256760 -8.414371 -0.119542 4.942451 3.372611 13.150521 -41.216800 14.374475 -0.890736 0.408200 -12.293959 -0.188314 0.000000 0.000000 0.000000 3.256760 -8.414371 -0.119542 -0.667744 3.236925 -19.377592 -43.532508 41.170536 39.610982 179.791780 44.675420 -178.975818 0.000000 0.000000 0.000000 
-1.689882 86.462120 0.363060 0.000000 0.000000 0.000000 5.840947 -82.225820 8.080509 -26.956291 26.499362 34.970934 32.117523 -10.727192 1.035041 -7.635072 5.697029 -22.154863 0.000000 0.000000 0.000000 5.840947 -82.225820 8.080509 -30.536881 -3.757179 -30.522838 29.214355 4.558411 -5.189589 -2.762530 7.300869 27.813756 0.000000 0.000000 0.000000 5.840947 -82.225820 8.080509 0.000000 0.000000 0.000000 7.157322 -5.596708 -4.753734 3.205282 -8.468310 -0.412651 0.000000 0.000000 0.000000 3.272584 -8.444018 -0.099793 -2.306781 1.566757 1.290377 0.000000 0.000000 0.000000 3.272584 -8.444018 -0.099793 4.890249 3.523471 13.153895 -41.149837 14.283769 -0.998569 0.411564 -12.283005 -0.187471 0.000000 0.000000 0.000000 3.272584 -8.444018 -0.099793 -0.637570 3.300934 -19.333492 -43.321527 40.922566 39.468941 179.817680 44.506008 -179.006131 0.000000 0.000000 0.000000 
-1.728224 86.461349 0.368437 0.000000 0.000000 0.000000 5.744477 -82.148468 8.003713 -26.917661 26.477674 34.925554 32.073540 -10.774588 1.030460 -7.621918 5.711418 -22.151355 0.000000 0.000000 0.000000 5.744477 -82.148468 8.003713 -30.450865 -3.713333 -30.545671 29.287397 4.458420 -5.209066 -2.865307 7.260659 27.864546 0.000000 0.000000 0.000000 5.744477 -82.148468 8.003713 0.000000 0.000000 0.000000 7.144076 -5.631117 -4.792303 3.217082 -8.497973 -0.386806 0.000000 0.000000 0.000000 3.288896 -8.475683 -0.075522 -2.303528 1.568191 1.293808 0.000000 0.000000 0.000000 3.288896 -8.475683 -0.075522 4.841603 3.655641 13.158284 -41.084076 14.218009 -1.098240 0.414898 -12.271947 -0.186576 0.000000 0.000000 0.000000 3.288896 -8.475683 -0.075522 -0.606760 3.367928 -19.287857 -43.123335 40.675006 39.333000 179.850970 44.352069 -179.040445 0.000000 0.000000 0.000000 
-1.766339 86.460144 0.373716 0.000000 0.000000 0.000000 5.650084 -82.071970 7.928924 -26.880775 26.456345 34.882674 32.031415 -10.799620 1.027306 -7.609306 5.702785 -22.153087 0.000000 0.000000 0.000000 5.650084 -82.071970 7.928924 -30.366423 -3.669403 -30.568156 29.361764 4.361542 -5.228255 -2.967762 7.218555 27.914594 0.000000 0.000000 0.000000 5.650084 -82.071970 7.928924 0.000000 0.000000 0.000000 7.131449 -5.668731 -4.829555 3.228220 -8.534275 -0.354374 0.000000 0.000000 0.000000 3.305726 -8.512875 -0.044384 -2.300319 1.569551 1.297300 0.000000 0.000000 0.000000 3.305726 -8.512875 -0.044384 4.794469 3.779244 13.163263 -41.016584 14.181517 -1.195724 0.418196 -12.262812 -0.185711 0.000000 0.000000 0.000000 3.305726 -8.512875 -0.044384 -0.575557 3.437851 -19.240783 -42.945928 40.427866 39.210829 179.896418 44.215342 -179.080060 0.000000 0.000000 0.000000 
-1.804157 86.458649 0.378914 0.000000 0.000000 0.000000 5.559311 -81.996360 7.857751 -26.845509 26.436406 34.840826 31.990519 -10.836936 1.023354 -7.597263 5.705314 -22.151845 0.000000 0.000000 0.000000 5.559311 -81.996360 7.857751 -30.283297 -3.625492 -30.590597 29.436623 4.263764 -5.247370 -3.070084 7.178572 27.964645 0.000000 0.000000 0.000000 5.559311 -81.996360 7.857751 0.000000 0.000000 0.000000 7.121734 -5.699608 -4.873357 3.238113 -8.558120 -0.333730 0.000000 0.000000 0.000000 3.319804 -8.538073 -0.025668 -2.297096 1.570927 1.300661 0.000000 0.000000 0.000000 3.319804 -8.538073 -0.025668 4.748876 3.895332 13.168651 -40.954736 14.107547 -1.279144 0.421504 -12.251558 -0.184833 0.000000 0.000000 0.000000 3.319804 -8.538073 -0.025668 -0.544066 3.510612 -19.192393 -42.738423 40.179462 39.071237 179.924135 44.064853 -179.112668 0.000000 0.000000 0.000000 
-1.841649 86.456940 0.383993 0.000000 0.000000 0.000000 5.470837 -81.921849 7.788921 -26.811303 26.417746 34.800152 31.950710 -10.875122 1.019438 -7.585875 5.707917 -22.150350 0.000000 0.000000 0.000000 5.470837 -81.921849 7.788921 -30.201389 -3.581709 -30.612949 29.511212 4.165678 -5.266194 -3.171515 7.140516 28.014383 0.000000 0.000000 0.000000 5.470837 -81.921849 7.788921 0.000000 0.000000 0.000000 7.114391 -5.733562 -4.915763 3.246983 -8.586482 -0.308148 0.000000 0.000000 0.000000 3.333880 -8.567132 -0.001619 -2.293863 1.572265 1.304078 0.000000 0.000000 0.000000 3.333880 -8.567132 -0.001619 4.704779 4.005073 13.174374 -40.891765 14.055751 -1.361435 0.424849 -12.240805 -0.183967 0.000000 0.000000 0.000000 3.333880 -8.567132 -0.001619 -0.512517 3.586117 -19.142828 -42.536359 39.924556 38.937467 179.953860 43.917205 -179.143691 0.000000 0.000000 0.000000 
-1.878787 86.454956 0.388971 0.000000 0.000000 0.000000 5.383781 -81.848254 7.721592 -26.778476 26.400223 34.760445 31.912512 -10.924398 1.014818 -7.575310 5.720562 -22.146129 0.000000 0.000000 0.000000 5.383781 -81.848254 7.721592 -30.120923 -3.538193 -30.635144 29.586098 4.068354 -5.285127 -3.272201 7.103203 28.063905 0.000000 0.000000 0.000000 5.383781 -81.848254 7.721592 0.000000 -0.000001 0.000000 7.108150 -5.766565 -4.958152 3.254755 -8.617318 -0.281635 0.000000 0.000000 0.000000 3.347248 -8.598093 0.023613 -2.290659 1.573722 1.307519 0.000000 0.000000 0.000000 3.347248 -8.598093 0.023613 4.662227 4.109558 13.180286 -40.829430 14.012740 -1.439120 0.428136 -12.230647 -0.183094 0.000000 0.000000 0.000000 3.347248 -8.598093 0.023613 -0.481058 3.664324 -19.092208 -42.338396 39.669513 38.806860 179.991317 43.776448 -179.179399 0.000000 0.000000 0.000000 
-1.915506 86.452606 0.393814 0.000000 0.000000 0.000000 5.298860 -81.775983 7.656464 -26.747125 26.383825 34.722728 31.875735 -10.958883 1.011251 -7.565170 5.717842 -22.145381 0.000000 0.000000 0.000000 5.298860 -81.775983 7.656464 -30.042536 -3.494867 -30.657171 29.661814 3.971750 -5.304203 -3.372407 7.067365 28.113103 0.000000 0.000000 0.000000 5.298860 -81.775983 7.656464 0.000000 0.000000 0.000000 7.103125 -5.799219 -5.001403 3.259738 -8.645511 -0.257067 0.000000 0.000000 0.000000 3.359265 -8.626001 0.046978 -2.287526 1.575079 1.310947 0.000000 0.000000 0.000000 3.359265 -8.626001 0.046978 4.621130 4.209685 13.186367 -40.769170 13.966412 -1.512710 0.431392 -12.219866 -0.182286 0.000000 0.000000 0.000000 3.359265 -8.626001 0.046978 -0.449814 3.744956 -19.040663 -42.138777 39.412353 38.676592 -179.972056 43.635784 -179.214820 0.000000 0.000000 0.000000 
-1.951783 86.449669 0.398520 0.000000 0.000000 0.000000 5.216239 -81.704758 7.593786 -26.717620 26.368410 34.685879 31.841819 -11.008470 1.007093 -7.556543 5.729371 -22.141117 0.000000 0.000000 0.000000 5.216239 -81.704758 7.593786 -29.966475 -3.451403 -30.679403 29.739637 3.878988 -5.323139 -3.472549 7.029327 28.161672 0.000000 0.000000 0.000000 5.216239 -81.704758 7.593786 0.000000 0.000000 0.000000 7.100587 -5.834357 -5.043082 3.264522 -8.678614 -0.229581 0.000000 0.000000 0.000000 3.370854 -8.658359 0.073831 -2.284358 1.576363 1.314405 0.000000 0.000000 0.000000 3.370854 -8.658359 0.073831 4.581551 4.306591 13.192346 -40.707808 13.937713 -1.583541 0.434706 -12.209840 -0.181447 0.000000 0.000000 0.000000 3.370854 -8.658359 0.073831 -0.419023 3.828039 -18.988346 -41.949451 39.157338 38.552658 -179.933739 43.506485 -179.249791 0.000000 0.000000 0.000000 
